<svg xmlns="http://www.w3.org/2000/svg" viewBox="0 0 960 580" width="960" height="580" style="background:#ffffff; font-family: -apple-system, BlinkMacSystemFont, Segoe UI, Roboto, Helvetica, Arial, sans-serif;">
<style>
  .title { font-size: 20px; font-weight: 700; fill: #1e293b; }
  .subtitle { font-size: 13px; fill: #64748b; }
  .axis { stroke: #94a3b8; stroke-width: 1.5; }
  .grid { stroke: #e2e8f0; stroke-width: 1; stroke-dasharray: 4,4; }
  .label { font-size: 12px; fill: #475569; }
  .axis-title { font-size: 14px; font-weight: 600; fill: #334155; }
  .legend-text { font-size: 12px; fill: #1e293b; }
</style>
<text x="95" y="35" class="title">Matrix Algorithms: Matrix Size vs Execution Time</text>
<text x="95" y="53" class="subtitle">Problem 3: Matrix Addition [O(n²)] vs Matrix Transpose [O(n²)] vs Matrix Multiplication [O(n³)]</text>
<line x1="95" y1="505.00" x2="695.00" y2="505.00" class="grid" />
<text x="83" y="509.00" text-anchor="end" class="label">0.00 ms</text>
<line x1="95" y1="432.50" x2="695.00" y2="432.50" class="grid" />
<text x="83" y="436.50" text-anchor="end" class="label">2137.34 ms</text>
<line x1="95" y1="360.00" x2="695.00" y2="360.00" class="grid" />
<text x="83" y="364.00" text-anchor="end" class="label">4274.68 ms</text>
<line x1="95" y1="287.50" x2="695.00" y2="287.50" class="grid" />
<text x="83" y="291.50" text-anchor="end" class="label">6412.02 ms</text>
<line x1="95" y1="215.00" x2="695.00" y2="215.00" class="grid" />
<text x="83" y="219.00" text-anchor="end" class="label">8549.36 ms</text>
<line x1="95" y1="142.50" x2="695.00" y2="142.50" class="grid" />
<text x="83" y="146.50" text-anchor="end" class="label">10686.70 ms</text>
<line x1="95" y1="70.00" x2="695.00" y2="70.00" class="grid" />
<text x="83" y="74.00" text-anchor="end" class="label">12824.04 ms</text>
<line x1="95.00" y1="70" x2="95.00" y2="505" class="grid" />
<text x="95.00" y="525" text-anchor="middle" class="label">10x10</text>
<line x1="143.98" y1="70" x2="143.98" y2="505" class="grid" />
<text x="143.98" y="525" text-anchor="middle" class="label">50x50</text>
<line x1="205.20" y1="70" x2="205.20" y2="505" class="grid" />
<text x="205.20" y="525" text-anchor="middle" class="label">100x100</text>
<line x1="327.65" y1="70" x2="327.65" y2="505" class="grid" />
<text x="327.65" y="525" text-anchor="middle" class="label">200x200</text>
<line x1="695.00" y1="70" x2="695.00" y2="505" class="grid" />
<text x="695.00" y="525" text-anchor="middle" class="label">500x500</text>
<line x1="95" y1="505" x2="695" y2="505" class="axis" />
<line x1="95" y1="70" x2="95" y2="505" class="axis" />
<text x="395.00" y="557" text-anchor="middle" class="axis-title">Square Matrix Dimension (N x N)</text>
<text x="25" y="287.50" text-anchor="middle" transform="rotate(-90 25 287.50)" class="axis-title">Execution Time (milliseconds)</text>
<path d="M 95.00 505.00 L 143.98 504.66 L 205.20 502.40 L 327.65 478.18 L 695.00 116.61" fill="none" stroke="#d00000" stroke-width="2.5"  />
<polygon points="95.00,500.00 100.00,505.00 95.00,510.00 90.00,505.00" fill="#d00000" stroke="#ffffff" stroke-width="1.5" />
<polygon points="143.98,499.66 148.98,504.66 143.98,509.66 138.98,504.66" fill="#d00000" stroke="#ffffff" stroke-width="1.5" />
<polygon points="205.20,497.40 210.20,502.40 205.20,507.40 200.20,502.40" fill="#d00000" stroke="#ffffff" stroke-width="1.5" />
<polygon points="327.65,473.18 332.65,478.18 327.65,483.18 322.65,478.18" fill="#d00000" stroke="#ffffff" stroke-width="1.5" />
<polygon points="695.00,111.61 700.00,116.61 695.00,121.61 690.00,116.61" fill="#d00000" stroke="#ffffff" stroke-width="1.5" />
<line x1="715" y1="80" x2="735" y2="80" stroke="#d00000" stroke-width="2.5"  />
<polygon points="725,76 729,80 725,84 721,80" fill="#d00000" />
<text x="741" y="84" class="legend-text">Matrix Multiplication (O(n^3))</text>
<path d="M 95.00 505.00 L 143.98 504.99 L 205.20 504.97 L 327.65 504.90 L 695.00 504.32" fill="none" stroke="#3a86ff" stroke-width="2.5"  />
<circle cx="95.00" cy="505.00" r="4.5" fill="#3a86ff" stroke="#ffffff" stroke-width="1.5" />
<circle cx="143.98" cy="504.99" r="4.5" fill="#3a86ff" stroke="#ffffff" stroke-width="1.5" />
<circle cx="205.20" cy="504.97" r="4.5" fill="#3a86ff" stroke="#ffffff" stroke-width="1.5" />
<circle cx="327.65" cy="504.90" r="4.5" fill="#3a86ff" stroke="#ffffff" stroke-width="1.5" />
<circle cx="695.00" cy="504.32" r="4.5" fill="#3a86ff" stroke="#ffffff" stroke-width="1.5" />
<line x1="715" y1="108" x2="735" y2="108" stroke="#3a86ff" stroke-width="2.5"  />
<circle cx="725" cy="108" r="3.5" fill="#3a86ff" />
<text x="741" y="112" class="legend-text">Matrix Addition (O(n^2))</text>
<path d="M 95.00 505.00 L 143.98 505.00 L 205.20 504.99 L 327.65 504.95 L 695.00 504.60" fill="none" stroke="#2b9348" stroke-width="2.5" stroke-dasharray="6,4" />
<rect x="91.00" y="501.00" width="8" height="8" fill="#2b9348" stroke="#ffffff" stroke-width="1.5" />
<rect x="139.98" y="501.00" width="8" height="8" fill="#2b9348" stroke="#ffffff" stroke-width="1.5" />
<rect x="201.20" y="500.99" width="8" height="8" fill="#2b9348" stroke="#ffffff" stroke-width="1.5" />
<rect x="323.65" y="500.95" width="8" height="8" fill="#2b9348" stroke="#ffffff" stroke-width="1.5" />
<rect x="691.00" y="500.60" width="8" height="8" fill="#2b9348" stroke="#ffffff" stroke-width="1.5" />
<line x1="715" y1="136" x2="735" y2="136" stroke="#2b9348" stroke-width="2.5" stroke-dasharray="6,4" />
<rect x="721.5" y="132.5" width="7" height="7" fill="#2b9348" />
<text x="741" y="140" class="legend-text">Matrix Transpose (O(n^2))</text>
</svg>
